<svg width="30" height="28" viewBox="0 0 30 28" fill="none" xmlns="http://www.w3.org/2000/svg">
<g clip-path="url(#clip0_133_7113)">
<path d="M10.0141 8.1777H13.5103C14.6875 8.1777 15.7116 8.40137 16.5827 8.84869C17.4774 9.29602 18.1719 9.95524 18.6664 10.8264C19.1608 11.6975 19.408 12.7569 19.408 14.0047C19.408 15.2761 19.1608 16.3591 18.6664 17.2537C18.1719 18.1249 17.4774 18.7841 16.5827 19.2314C15.7116 19.6786 14.6875 19.9025 13.5103 19.9025H10.0141V8.1777ZM10.0141 8.1777V1.67969H13.8635C16.6181 1.67969 19.043 2.18587 21.1384 3.19824C23.2337 4.18707 24.87 5.59969 26.0472 7.43608C27.2245 9.27248 27.813 11.462 27.813 14.0047C27.813 16.571 27.2245 18.7841 26.0472 20.6441C24.87 22.4803 23.2337 23.9048 21.1384 24.9171C19.043 25.906 16.6181 26.4003 13.8635 26.4003H1.67969V8.1777H10.0141Z" stroke="#FBBF24" stroke-width="3.18205"/>
</g>
<defs>
<clipPath id="clip0_133_7113">
<rect width="29.4933" height="28" fill="white"/>
</clipPath>
</defs>
</svg>
